<svg width="24" height="23" viewBox="0 0 24 23" fill="none" xmlns="http://www.w3.org/2000/svg">
<path d="M23.389 0.447613C23.1431 0.227051 22.8453 0.081137 22.5272 0.0253828C22.2092 -0.0303714 21.8828 0.00611677 21.5828 0.130969L1.12746 8.63343C0.768675 8.7781 0.464772 9.04359 0.262545 9.389C0.0603175 9.73438 -0.0290205 10.1406 0.00828714 10.545C0.0415715 10.9493 0.197788 11.3313 0.453509 11.6336C0.709231 11.936 1.05068 12.1425 1.42664 12.222L6.62359 13.3127V20.185C6.62341 20.5568 6.72758 20.9203 6.92289 21.2293C7.11821 21.5384 7.39585 21.779 7.72061 21.9208C7.93553 22.0123 8.16487 22.06 8.39654 22.0614C8.6294 22.0623 8.86008 22.014 9.07509 21.9194C9.29009 21.8247 9.48509 21.6857 9.64868 21.5103L12.5297 18.4729L16.8845 22.5305C17.206 22.8307 17.6194 22.9973 18.048 22.9996C18.2365 23.0038 18.4242 22.972 18.6021 22.9058C18.8945 22.808 19.1577 22.6309 19.3656 22.3923C19.5736 22.1537 19.7191 21.8618 19.7877 21.5455L23.9541 2.28884C24.027 1.95655 24.0128 1.60955 23.9133 1.28514C23.8137 0.960721 23.6324 0.671167 23.389 0.447613ZM7.29953 11.5419L1.78123 10.3809L17.2502 3.94242L7.29953 11.5419ZM8.39654 20.185V14.6262L11.1889 17.2297L8.39654 20.185ZM18.0591 21.1232L8.92843 12.6208L22.0815 2.5703L18.0591 21.1232Z" fill="#FFBA00"/>
</svg>
