<svg width="24" height="23" viewBox="0 0 24 23" fill="none" xmlns="http://www.w3.org/2000/svg">
<path fill-rule="evenodd" clip-rule="evenodd" d="M17.4988 13.7828C17.1994 13.64 15.7313 12.9519 15.458 12.8561C15.1847 12.7612 14.9858 12.7142 14.7858 12.9998C14.5869 13.2835 14.0151 13.9256 13.8413 14.1153C13.6665 14.306 13.4926 14.329 13.1942 14.1872C12.8958 14.0434 11.9332 13.7435 10.7927 12.7736C9.90544 12.0185 9.30557 11.086 9.13173 10.8004C8.9579 10.5158 9.11264 10.3615 9.26236 10.2197C9.39701 10.0922 9.56079 9.88715 9.71051 9.72135C9.86022 9.5546 9.90946 9.43577 10.0089 9.24506C10.1094 9.05531 10.0592 8.88952 9.98382 8.74673C9.90946 8.60394 9.3126 7.2019 9.06341 6.63169C8.82125 6.07682 8.57507 6.15253 8.39219 6.14294C8.21736 6.13528 8.0184 6.13336 7.81945 6.13336C7.6205 6.13336 7.29695 6.20428 7.02364 6.48986C6.74932 6.77448 5.97863 7.46353 5.97863 8.86556C5.97863 10.2666 7.04775 11.6208 7.19747 11.8115C7.34719 12.0012 9.30255 14.8781 12.2979 16.1115C13.0113 16.4048 13.567 16.5801 14.0001 16.7105C14.7155 16.928 15.3666 16.8973 15.8811 16.8236C16.4538 16.7421 17.6475 16.1345 17.8967 15.4694C18.1449 14.8043 18.1449 14.2341 18.0705 14.1153C17.9962 13.9965 17.7972 13.9256 17.4978 13.7828H17.4988ZM12.0507 20.8773H12.0467C10.2676 20.8776 8.52118 20.4215 6.99048 19.5567L6.62875 19.3516L2.86874 20.2927L3.87255 16.7967L3.63642 16.4383C2.64179 14.9284 2.11542 13.1807 2.11814 11.3975C2.12015 6.17457 6.57549 1.92533 12.0547 1.92533C14.7074 1.92533 17.2014 2.91241 19.0764 4.70257C20.0012 5.58096 20.7342 6.62553 21.233 7.77585C21.7318 8.92616 21.9864 10.1594 21.9823 11.4042C21.9803 16.6271 17.5249 20.8773 12.0507 20.8773ZM20.5032 3.3427C19.3961 2.27984 18.0788 1.43709 16.6277 0.863305C15.1766 0.289517 13.6205 -0.00390639 12.0497 3.927e-05C5.46417 3.927e-05 0.102491 5.11274 0.100481 11.3965C0.0974296 13.3964 0.647475 15.3615 1.69512 17.0938L0 23L6.33434 21.4149C8.0866 22.3254 10.0502 22.8026 12.0457 22.8026H12.0507C18.6363 22.8026 23.9979 17.6899 23.9999 11.4051C24.0048 9.90756 23.6983 8.42387 23.098 7.03998C22.4978 5.65608 21.6159 4.39942 20.5032 3.3427Z" fill="#FFBA00"/>
</svg>
