<svg width="21" height="21" viewBox="0 0 21 21" fill="none" xmlns="http://www.w3.org/2000/svg">
<mask id="path-1-inside-1_0_136" fill="white">
<path d="M2.29428 7.02144C3.09092 5.14219 4.50847 3.59332 6.30997 2.63372C8.11147 1.67412 10.1878 1.36195 12.1918 1.74939C14.1958 2.13682 16.0062 3.20039 17.3202 4.7623C18.6342 6.32422 19.3723 8.28984 19.4111 10.3306C19.4499 12.3714 18.787 14.3636 17.5333 15.9744C16.2796 17.5851 14.511 18.7167 12.5231 19.18C10.5353 19.6433 8.44863 19.4103 6.61196 18.5198C4.77528 17.6294 3.2999 16.1355 2.43241 14.2879L3.49398 13.7895C4.24732 15.394 5.52857 16.6913 7.12357 17.4646C8.71856 18.2378 10.5306 18.4402 12.2569 18.0378C13.9832 17.6355 15.5191 16.6528 16.6078 15.254C17.6966 13.8552 18.2722 12.1251 18.2385 10.3529C18.2049 8.58066 17.5639 6.87369 16.4228 5.51729C15.2816 4.1609 13.7095 3.23728 11.9692 2.90083C10.2289 2.56437 8.42577 2.83547 6.86132 3.66879C5.29686 4.50212 4.06584 5.84719 3.37402 7.47916L2.29428 7.02144Z"/>
</mask>
<path d="M2.29428 7.02144C3.09092 5.14219 4.50847 3.59332 6.30997 2.63372C8.11147 1.67412 10.1878 1.36195 12.1918 1.74939C14.1958 2.13682 16.0062 3.20039 17.3202 4.7623C18.6342 6.32422 19.3723 8.28984 19.4111 10.3306C19.4499 12.3714 18.787 14.3636 17.5333 15.9744C16.2796 17.5851 14.511 18.7167 12.5231 19.18C10.5353 19.6433 8.44863 19.4103 6.61196 18.5198C4.77528 17.6294 3.2999 16.1355 2.43241 14.2879L3.49398 13.7895C4.24732 15.394 5.52857 16.6913 7.12357 17.4646C8.71856 18.2378 10.5306 18.4402 12.2569 18.0378C13.9832 17.6355 15.5191 16.6528 16.6078 15.254C17.6966 13.8552 18.2722 12.1251 18.2385 10.3529C18.2049 8.58066 17.5639 6.87369 16.4228 5.51729C15.2816 4.1609 13.7095 3.23728 11.9692 2.90083C10.2289 2.56437 8.42577 2.83547 6.86132 3.66879C5.29686 4.50212 4.06584 5.84719 3.37402 7.47916L2.29428 7.02144Z" stroke="white" stroke-width="3" mask="url(#path-1-inside-1_0_136)"/>
<path d="M2.90084 10.2555L2.40084 10.2555L2.40084 11.2555L2.90084 11.2555L2.90084 10.2555ZM14.9876 11.109C15.1829 10.9138 15.1829 10.5972 14.9876 10.4019L11.8056 7.21996C11.6104 7.0247 11.2938 7.0247 11.0985 7.21996C10.9033 7.41522 10.9033 7.7318 11.0985 7.92707L13.927 10.7555L11.0985 13.5839C10.9033 13.7792 10.9033 14.0958 11.0985 14.291C11.2938 14.4863 11.6104 14.4863 11.8056 14.291L14.9876 11.109ZM2.90084 11.2555L14.6341 11.2555L14.6341 10.2555L2.90084 10.2555L2.90084 11.2555Z" fill="white"/>
</svg>
